<?xml version="1.0" encoding="UTF-8"?><svg id="Calque_1" xmlns="http://www.w3.org/2000/svg" xmlns:xlink="http://www.w3.org/1999/xlink" viewBox="0 0 1019 229"><defs><style>.cls-1{fill:none;}.cls-2{clip-path:url(#clippath);}.cls-3{fill:#010101;}.cls-4{fill:#f5ead7;}.cls-5{fill:#f5e5c9;}.cls-6{fill:#fff;}.cls-7{fill:#ae8bbc;}.cls-8{fill:#a6a6a6;}.cls-9{fill:#231f20;}.cls-10{fill:#5e3883;}.cls-11{fill:#7c4ec4;}</style><clipPath id="clippath"><rect class="cls-1" x="3" y="4" width="262.32" height="221.83"/></clipPath></defs><rect class="cls-6" width="1019" height="229"/><path class="cls-11" d="M895.09,114.05l-8.83-.4s-2.38-14.18-1.39-18.64l41.88,.4s.99,15.97,.69,18.35l-7.44,.3,7.44,17.06,16.77-29.65,12.7,.4,18.66,29.55,6.75-16.96-7.94-.4,.1-18.64c.69-.69,41.58-.3,41.48-.3,0,0,1.09,9.62,.99,18.64l-8.44,.6s-13.89,39.67-22.42,52.36c0,0-11.31,.99-17.27-.4l-19.05-30.54-16.97,30.94s-12.7,.99-18.66-.4c.1,0-16.97-40.76-19.05-52.26Zm-45.25-20.03c19.85,0,34.33,13.29,34.33,36.79,0,19.34-10.32,37.79-34.14,37.79-21.33,0-36.42-11.11-36.42-38.08-.1-26.78,16.27-36.5,36.22-36.5Zm.5,50.68c5.46,0,9.62-4.17,9.62-13.19,0-7.14-2.78-14.38-9.62-14.38-8.53,0-11.31,7.04-11.31,14.38,0,8.43,6.15,13.19,11.31,13.19Zm-80.67-76.26c10.62,0,16.57,5.85,16.57,5.85l1.59-8.23c0,.3,15.98,.6,22.03,4.36,.99,.69-.7,34.91-.7,34.91l-22.52,2.78s-2.78-14.38-15.38-14.38c-7.24,0-13.5,7.74-13.5,23.21,0,16.56,9.92,22.21,16.97,22.21,8.93,0,15.68-7.54,17.07-9.52,6.35,6.55,18.36,17.36,18.36,17.36,0,0-8.83,20.73-35.43,20.73-21.83,0-45.65-16.96-45.65-50.78-.2-35.5,20.94-48.5,40.59-48.5Z"/><path class="cls-3" d="M659.43,157.59s-19.65-32.23-21.73-43.64l-7.74-.4s-2.38-13.69-1.39-18.25l41.88-.1s.99,16.07,.69,18.45l-7.84,.3,10.62,19.73,10.22-19.34-7.04-.4-.3-18.25c.7-.69,40.39,.6,40.19,.6,0,0,1.09,8.93,.99,17.95l-7.74,.4s-38.01,74.78-46.54,87.47c0,0-19.65-3.97-24.21-11.9-.79-.1,20.54-32.43,19.95-32.63Zm-193.89,20.73l-.1-58.41h-10.32c-.1-8.93-.99-20.73-.99-20.73-.1,0,30.96-5.06,31.65-4.36,.3,.79,2.98,6.15,2.98,6.15,0,0,4.07-6.15,18.36-6.15,12.9,0,32.05,8.43,32.05,37.29s-16.97,35.8-31.26,35.8c-11.91,0-16.27-4.46-16.27-4.46v13.89s13.59,1.59,14.19,1.98c.79,.69,.4,18.94,.6,18.94,.3,0-50.8,.3-50.61,0l-.79-19.04,10.52-.89Zm38.6-32.03c6.75,0,9.82-5.35,9.82-14.68s-3.77-14.18-9.23-14.18c-6.05,0-9.82,5.16-9.82,13.98-.1,8.43,3.77,14.88,9.23,14.88Zm50.51,32.03l-.1-58.41h-10.32c-.1-8.93-.99-20.73-.99-20.73-.1,0,30.96-5.06,31.66-4.36,.3,.79,2.98,6.15,2.98,6.15,0,0,4.07-6.15,18.36-6.15,12.9,0,32.05,8.43,32.05,37.29s-16.97,35.8-31.26,35.8c-11.91,0-16.27-4.46-16.27-4.46v13.89s13.59,1.59,14.19,1.98c.79,.69,.4,18.94,.59,18.94,.3,0-50.8,.3-50.61,0l-.79-19.04,10.52-.89Zm38.6-32.03c6.75,0,9.82-5.35,9.82-14.68s-3.77-14.18-9.23-14.18c-6.05,0-9.82,5.16-9.82,13.98-.1,8.43,3.67,14.88,9.23,14.88Zm-227.73-16.26c0-26.58,17.07-34.41,31.36-34.41,11.91,0,20.74,7.04,20.74,7.04v-7.04s29.67-.99,29.67-.3,.99,18.64,.79,18.64c-.3,0-10.12,2.08-10.32,2.38-.4,.3,.3,29.55,.3,29.55,.1,0,11.61-.1,11.81,.79,.3,.99,.3,19.64-.3,19.64-.4,0-31.75-.6-31.75-.99s-1.39-7.14-1.39-7.14c0,0-5.56,9.22-19.85,9.22-13,0-31.06-8.53-31.06-37.39Zm46.84,.69c0-7.44-4.66-13.59-10.32-13.59-7.05,0-11.61,4.86-11.61,13.29s5.46,13.29,11.11,13.29c6.15,.1,10.82-5.16,10.82-12.99Zm-145.77,17.36c.6-.6,10.12-1.39,10.12-1.39l-1.98-57.82s-8.14,.3-8.83-.4c-.69-.69,.6-20.43,.6-20.43l40.49,.69,.99,19.83-9.82,.99,.69,15.37,26.99,1.29-.3-17.26s-8.14-.79-8.24-.79-1.39-19.14-1.39-19.14l46.04,.4s-.4,19.14-.7,19.14-10.32,1.69-10.32,1.69l1.79,55.34,9.63,1.09v20.03s-43.46,.6-43.46,.3-.4-20.43-.4-20.43l9.82-.99-.4-18.45-28.48-.79s-.3,20.43,.4,20.43,9.43-.6,9.43,.4,1.98,18.45,1.29,18.74c-.7,.3-43.66-.7-43.66-.7,0,0-.79-16.56-.3-17.16Z"/><g class="cls-2"><g><path class="cls-5" d="M219.74,159.07c-.15-14.83-3.26-24.53-9.68-30.47-1.12-1.06-2.34-1.86-3.51-2.61-6.67-4.12-14.62-4.22-21.04-3.72-.56,0-1.12,.1-1.63,.15-1.78,.15-3.67,.4-5.65,.65-1.99,.3-4.02,.6-6.32,.96l-3.06,.5c-3.72,.6-7.49,1.26-11.46,1.81-8.3,1.16-19.25,2.21-30.46,.25-5.5-.95-10.75-2.71-15.59-4.67-4.38-1.81-8.4-3.82-11.87-5.63-3.11-1.61-6.16-3.37-9.22-5.08-2.6-1.46-5.14-2.87-7.64-4.17-2.45-1.31-4.89-2.51-7.23-3.62-.36-.15-.71-.4-1.07-.55-5.6-2.46-13.65-5.33-21.8-3.62-1.32,.25-2.65,.65-3.97,1.16-8.46,3.42-14.82,11.46-20.27,25.79-8,26.29-2.65,49.52,15.38,67.22,18.74,18.35,46.25,26.35,66.01,29.76,8.46,1.46,18.54,2.66,29.18,2.66,14.21,0,29.44-2.11,43.14-8.35,23.07-10.51,36.16-30.57,37.74-57.97v-.45h0Z"/><path class="cls-8" d="M96.12,36.19c1.48-.45,3.06-.75,4.58-1.11h.02c-2.7-2.92-5.54-5.98-6.61-9.8-.25-1.01-.46-2.01-.31-3.02,.15-1.41,.87-2.66,1.53-3.92,1.58-3.07,2.9-6.74,1.48-9.9-1.07-2.36-3.51-3.92-6.06-4.32-2.55-.4-5.2,.2-7.59,1.31-3.77,1.76-7.33,4.32-9.93,7.59-2.6,3.27-4.28,6.74-5.45,10.56-.61,2.01-1.02,4.02-1.22,6.08-.86,7.57,.76,15.34,3.9,22.31,6.98-7.44,15.84-12.82,25.67-15.79h0Z"/><path class="cls-8" d="M206.08,75.35c.24-.3,10.02-12.58,11.74-20.16,1.92-8.48,.34-17.92-5.13-24.68-1.96-2.41-4.51-4.57-7.62-5.2-1.71-.38-3.56-.16-5.15,.53-.79,.34-1.49,.85-2.1,1.46-.33,.33-.51,.67-.79,1l-.34,.38c-.17,.19-.24,.49-.31,.68-.82,2.11-1.25,4.39-1.17,6.62-.01,.15-.02,.3,.02,.46,.1,1.32,.36,2.65,0,3.93-.23,1.04-.86,1.9-1.54,2.76-2.52,3.06-9.91,6.31-10.11,6.4,1.23,.78,2.5,1.56,3.65,2.46,13.83,10.85,18.83,23.34,18.84,23.37h0Z"/><path class="cls-11" d="M261.53,86.97c-6.17-7.18-17.39-10.76-26.46-11.92-4.89-.65-10.29-.85-16.5-.6h-.51c-5.12,.3-9.03,.6-11.98,.9,0-.03-5.01-12.52-18.84-23.37-1.25-.98-2.65-1.81-3.97-2.66-5.15-3.17-10.8-5.63-16.96-7.09,5.3-2.11,13.04-2.36,16.1-2.21,1.48,.1,2.9-.85,3.41-2.26,.51-1.41,0-3.02-1.22-3.87-11.71-8.3-23.33-6.64-30.56-3.37-1.02-5.38-3.11-10.26-3.21-10.56-.41-.96-1.27-1.71-2.29-1.96-1.07-.3-2.14-.05-2.95,.55-3.26,2.46-5.25,6.49-6.47,9.85-12.73-9.95-25.42-7.09-25.98-6.99-1.38,.3-2.39,1.46-2.6,2.82-.2,1.36,.46,2.71,1.68,3.42,2.85,1.61,6.62,4.17,9.47,6.69-7.18-1.11-14.26-.7-20.99,.75-1.53,.35-3.11,.65-4.58,1.11-9.83,2.97-18.69,8.35-25.67,15.79-2.9-1.51-7.23-3.37-13.6-5.73-5.6-2.01-10.8-3.42-15.84-4.37-8.25-1.56-20.32-2.61-29.59,5.68-4.99,4.27-8.15,11.06-8.4,17.65-.2,5.48,1.63,10.51,5.2,14.13,5.86,6.08,15.13,7.54,23.94,7.54,4.53,0,8.96-.4,12.78-.7l1.43-.1c3.36-.25,6.21-.55,8.66-.9l-2.55,14.08h0s.05,0,.05,0c8.15-1.71,16.2,1.16,21.8,3.62,.36,.15,.71,.4,1.07,.55,2.34,1.11,4.79,2.31,7.23,3.62,2.5,1.31,5.04,2.72,7.64,4.17,3.06,1.71,6.11,3.47,9.22,5.08,3.46,1.81,7.49,3.82,11.87,5.63,4.84,1.96,10.09,3.72,15.59,4.68,11.2,1.96,22.16,.91,30.46-.25,3.97-.55,7.74-1.21,11.46-1.81l3.06-.5c2.29-.35,4.33-.65,6.32-.96,1.99-.25,3.87-.5,5.65-.65,.51-.05,1.07-.15,1.63-.15,6.39-.5,14.3-.4,20.96,3.67l3.03-16.9c1.99,.86,4.23,1.76,6.93,2.76l.92,.35c7.44,2.87,17.67,6.79,26.99,6.79,3.62,0,7.13-.6,10.24-2.06,4.63-2.16,8-6.13,9.42-11.16,1.68-5.83,2.55-12.91-2.47-18.75h0Z"/><path class="cls-4" d="M233.85,86.02c-3.01-.4-9.42-.7-12.84,1.11-3.41,1.76-14.01,9.2,2.5,16.54,5.5,2.16,14.11,5.73,19.81,2.97,5.3-2.56,5.91-9.6,3-14.13-3-4.73-7.33-5.73-12.53-6.44l.05-.05h0Z"/><path class="cls-4" d="M36.68,52.38c-5.09-.9-9.52-1.31-14.01,2.87-4.23,3.97-5.91,11.66-1.78,16.04,4.53,4.73,13.91,3.67,19.81,3.07,18.13-2.77,10.54-13.83,7.79-16.79-2.6-2.97-8.81-4.63-11.82-5.13v-.05h0Z"/><path class="cls-9" d="M96.63,97.28c-2.55-.45-4.18-2.87-3.62-5.38,.46-2.51,2.9-4.12,5.45-3.57,2.55,.45,4.18,2.87,3.62,5.38-.46,2.51-2.9,4.02-5.45,3.57h0Z"/><path class="cls-6" d="M82.63,107.03c2.5,1.31,5.04,2.72,7.64,4.17,3.06,1.71,6.11,3.47,9.22,5.08,3.45,1.8,7.46,3.81,11.83,5.61v-.08c4.52-12.72,13.49-45.4-12.24-50.68-20.37-4.07-23.43,27.4-23.74,32.18l-.02,.06,.07,.04c2.34,1.11,4.79,2.31,7.23,3.62h0Z"/><path class="cls-6" d="M168.86,124.53l3.06-.5c2.29-.35,4.33-.65,6.32-.96,1.96-.25,3.81-.49,5.57-.64v-.11c.95-3.27,10.02-35.44-11.12-38.56-26.18-3.77-28.93,30.47-29.03,43.79l-.04,.08c5.04-.18,9.73-.72,13.79-1.28,3.97-.55,7.74-1.21,11.46-1.81h0Z"/><path class="cls-9" d="M90.27,111.21c3.06,1.71,6.11,3.47,9.22,5.08,1.39,.73,2.87,1.48,4.42,2.25,.66-.5,1.33-1.13,1.56-1.42,3.34-4.36,5.48-10.17,5.95-16.06,.53-6.63-1.06-13.36-5.45-18.22-2.39-2.64-5.88-4.45-9.46-4.25-4.71,.27-8.59,3.87-11.06,7.85-2.71,4.38-4.25,9.46-4.41,14.59-.04,1.34-.12,3.63,.27,5.33l1.32,.69c2.5,1.31,5.04,2.72,7.64,4.17h0Z"/><path class="cls-10" d="M89.76,146.65c4.07,.7,8-2.01,8.71-6.03,.71-4.02-2.04-7.89-6.11-8.6-4.07-.7-8,2.01-8.71,6.03-.71,4.02,2.04,7.89,6.11,8.6h0Z"/><path class="cls-10" d="M158.82,143.08c-4.07-.7-8,2.01-8.71,6.03-.71,4.02,2.04,7.89,6.11,8.6,4.07,.7,8-2.01,8.71-6.03s-2.04-7.89-6.11-8.6h0Z"/><path class="cls-7" d="M161.93,182.29c-1.93-.45-2.85-2.21-3.16-3.07-.76-1.91-2.85-2.97-4.74-2.41-1.12,.25-2.04,.96-2.55,1.96-.51,.96-.56,2.11-.1,3.17,.05,.15,.2,.45,.36,.86-6.32,3.62-21.04,10.41-39.22,7.59-17.01-2.67-25.77-14.03-29.08-19.46,.76-.8,1.17-1.46,1.22-1.56,1.17-1.71,.66-4.17-1.27-5.48-1.88-1.11-4.28-.55-5.4,1.36,0,.1-1.22,2.06-3.62,1.81-1.07,0-2.19,.4-2.95,1.21-.66,.7-1.02,1.66-.97,2.61-.1,1.91,1.32,3.62,3.31,3.92h.56c.66,0,1.38,0,2.04-.1,3.51,6.23,13.45,19.71,35.04,23.48,3.67,.65,7.18,.9,10.54,.9,16.86,0,29.8-6.99,35.25-10.51,.92,.5,1.88,.86,2.9,1.11l.76,.1c1.88,0,3.36-1.06,4.07-3.07,.31-1.91-.92-3.82-3.01-4.42h0Z"/><path class="cls-9" d="M168.86,124.53l3.06-.5c1.66-.26,3.18-.48,4.65-.7,1.26-2.1,2.39-4.55,3.19-7.09,3.41-11.46-.31-22.62-8.25-24.99-7.95-2.41-17.22,4.98-20.73,16.44-2.23,7.21-1.48,14.43,1.34,19.31,1.85-.2,3.62-.43,5.28-.66,3.97-.55,7.74-1.21,11.46-1.81h0Z"/><path class="cls-6" d="M171.25,105.27c.46-2.51-1.32-4.83-3.87-5.18-2.55-.45-4.89,1.31-5.25,3.82-.46,2.51,1.32,4.73,3.87,5.18,2.55,.45,4.89-1.31,5.25-3.82h0Z"/><path class="cls-6" d="M98.47,88.33c-2.5-.55-4.99,1.06-5.45,3.57-.56,2.46,1.07,4.93,3.62,5.38,2.55,.45,4.99-1.06,5.45-3.57,.56-2.46-1.07-4.93-3.62-5.38Z"/></g></g></svg>